<?xml version="1.0" standalone="no"?><!DOCTYPE svg PUBLIC "-//W3C//DTD SVG 1.1//EN" "http://www.w3.org/Graphics/SVG/1.1/DTD/svg11.dtd"><svg t="1625553420108" class="icon" viewBox="0 0 1024 1024" version="1.1" xmlns="http://www.w3.org/2000/svg" p-id="2265" xmlns:xlink="http://www.w3.org/1999/xlink" width="200" height="200"><defs><style type="text/css"></style></defs><path d="M512 512m-469.333333 0a469.333333 469.333333 0 1 0 938.666666 0 469.333333 469.333333 0 1 0-938.666666 0Z" fill="#7F7F7F" opacity=".6" p-id="2266"></path><path d="M334.933333 334.933333a37.76 37.76 0 0 1 53.12 0L512 458.88l123.946667-123.946667a37.546667 37.546667 0 1 1 53.12 53.12L565.12 512l123.946667 123.946667a37.546667 37.546667 0 1 1-53.12 53.12L512 565.12l-123.946667 123.946667a37.546667 37.546667 0 1 1-53.12-53.12L458.88 512l-123.946667-123.946667a37.76 37.76 0 0 1 0-53.12z" fill="#7F7F7F" p-id="2267"></path></svg>