<?xml version="1.0" standalone="no"?><!DOCTYPE svg PUBLIC "-//W3C//DTD SVG 1.1//EN" "http://www.w3.org/Graphics/SVG/1.1/DTD/svg11.dtd"><svg t="1626971060432" class="icon" viewBox="0 0 1181 1024" version="1.1" xmlns="http://www.w3.org/2000/svg" p-id="5493" xmlns:xlink="http://www.w3.org/1999/xlink" width="230.6640625" height="200"><defs><style type="text/css">@font-face { font-family: feedback-iconfont; src: url("//at.alicdn.com/t/font_1031158_1uhr8ri0pk5.eot?#iefix") format("embedded-opentype"), url("//at.alicdn.com/t/font_1031158_1uhr8ri0pk5.woff2") format("woff2"), url("//at.alicdn.com/t/font_1031158_1uhr8ri0pk5.woff") format("woff"), url("//at.alicdn.com/t/font_1031158_1uhr8ri0pk5.ttf") format("truetype"), url("//at.alicdn.com/t/font_1031158_1uhr8ri0pk5.svg#iconfont") format("svg"); }
</style></defs><path d="M1019.417296 507.946688c0 68.831868-6.189916 137.230442-30.949581 197.025032-25.688152 61.899162-73.041011 112.161281-119.836778 158.895148a496.926471 496.926471 0 0 1-164.342274 106.466559c-59.79459 24.759665-122.684139 53.666573-191.516007 53.666573s-134.444979-22.1599-194.301469-46.981464c-61.899162-25.688152-114.142054-67.098691-160.93782-113.832558a500.392824 500.392824 0 0 1-111.418491-162.052006C21.41711 641.277483 0 576.778556 0 507.946688a515.620018 515.620018 0 0 1 38.872674-196.158444c25.750051-61.899162 70.007952-114.018256 116.741819-160.93782s100.338541-86.968322 162.361501-112.656475A507.077933 507.077933 0 0 1 512.52506 0.002166c68.831868 0 132.526105 18.569749 192.320695 43.63891 61.899162 25.688152 124.664912 53.91417 171.398779 100.648037s72.174423 110.490004 97.862575 172.451064c24.821564 59.856489 45.310186 122.746038 45.310187 191.206511z" fill="#FFD635" p-id="5494"></path><path d="M621.900879 957.891695c-64.870322 0-126.831383-20.921917-183.221519-44.3198-58.494708-24.264471-107.704542-63.260943-151.776745-107.395045a471.91921 471.91921 0 0 1-104.795281-152.829031c-23.397883-56.390136-43.329413-117.237012-43.329413-182.169233a486.775008 486.775008 0 0 1 36.396707-185.016595c24.264471-58.494708 66.232103-107.518844 110.118609-151.591047S379.937055 52.430757 438.369864 28.166285A469.133747 469.133747 0 0 1 531.837598 0.559259C525.461984 0.002166 519.024472 0.002166 512.52506 0.002166a507.077933 507.077933 0 0 0-194.549066 38.191783c-61.899162 25.750051-115.627634 66.108305-162.361501 112.842172s-90.991768 99.038659-116.741819 160.937821A515.620018 515.620018 0 0 0 0 507.946688c0 68.831868 21.41711 133.330795 46.238674 193.187284a499.773832 499.773832 0 0 0 111.418491 162.052006c46.733867 46.733867 99.038659 88.144406 160.937821 113.832558 59.856489 24.759665 125.5315 46.981464 194.301469 46.981464s131.721416-28.845009 191.516006-53.666573a517.848388 517.848388 0 0 0 134.568778-79.540423c-11.760841 5.818521-23.769278 11.389446-36.087211 16.527076-56.761531 23.335984-115.813332 50.571615-180.993149 50.571615z" fill="#F7B523" p-id="5495"></path><path d="M431.003864 132.156877s3.652051-2.847361 10.27526-7.304101a240.168748 240.168748 0 0 1 28.659312-16.650875 235.712008 235.712008 0 0 1 44.3198-16.836572A217.513655 217.513655 0 0 1 569.472288 83.689833h14.05111c4.39484 0 9.408673 0.309496 13.927312 0.618992s9.099177 0.990387 13.555916 1.609378 8.789681 1.547479 13.060723 2.475967a168.613317 168.613317 0 0 1 24.078774 7.489798 140.139702 140.139702 0 0 1 20.488623 9.903866 123.798324 123.798324 0 0 1 27.483228 21.293312 74.278994 74.278994 0 0 1 6.62321 7.737395 27.607026 27.607026 0 0 1 2.16647 3.033059s-5.19953 0.928487-13.617815 1.547479c-4.147244 0.309496-9.099177 0.433294-14.670101 0.680891s-11.637042 0-18.136455 0-13.432118-0.618992-20.67432-1.114185-14.732001-1.361782-22.469396-2.352168l-11.698941-1.609379-12.008438-1.918874c-4.085345-0.680891-7.737395-1.423681-12.379832-2.042672l-6.189916-1.237983a55.214052 55.214052 0 0 0-5.818521-0.74279 438.988855 438.988855 0 0 0-91.548861 0l-32.125665 2.723563-9.222975 0.680891z" fill="#FFEF57" p-id="5496"></path><path d="M955.413562 270.934798a863.493307 863.493307 0 0 0-147.258106 12.008437c-140.758694 24.759665-141.191988 46.486271-204.267234 46.486271s-63.756137-21.602807-204.267233-46.486271a863.493307 863.493307 0 0 0-147.258106-12.008437c-80.840305 0-162.732896 9.903866-226.055739 29.587799l8.294487 81.335499s35.096825 1.733177 46.795767 49.147934c21.355211 86.658827 40.729648 123.798324 76.693061 155.552594 40.667749 35.839615 103.309701 51.623901 162.547199 51.623901 52.366691 0 102.133617-12.379832 131.721416-33.98264 59.485094-43.329413 78.116742-80.46891 97.181684-154.747905 13.741614-53.295178 49.519329-54.842657 53.728473-54.842657h0.804689c4.085345 0 39.924959 1.547479 53.666573 54.842657 19.126841 73.8457 37.69659 110.985197 97.181684 154.747905 29.587799 21.664707 79.354725 33.98264 131.783316 33.98264 59.175599 0 121.81755-15.784286 162.485299-51.623901 35.963413-31.692371 55.337851-69.079465 76.693062-155.552594 11.698942-47.414758 46.795766-49.147934 46.795766-49.147934l8.789681-81.335499c-63.322843-19.683933-145.215434-29.587799-226.055739-29.587799z" fill="#534741" p-id="5497"></path><path d="M440.041141 347.875456c-15.227194-3.466353-32.249463-6.870807-50.571615-10.089564a804.689103 804.689103 0 0 0-137.601837-11.141849c-55.709246 0-92.105953 10.832353-108.818726 32.249464-11.141849 14.174908-13.679715 33.98264-7.551698 58.742304 19.93153 80.46891 35.653917 106.218962 59.423195 127.140878 26.802337 23.583581 73.783801 37.69659 125.717198 37.69659 40.110657 0 79.849919-9.346773 99.038659-23.212186 46.981464-34.415934 59.608893-59.732691 76.135969-123.488828 6.189916-24.078774 5.013832-43.329413-3.528252-57.318623s-26.492841-24.759665-52.242893-30.578186zM817.873625 337.785892c-18.569749 3.218756-35.282522 6.62321-50.571615 10.089564-25.750051 5.818521-43.329413 16.093782-52.119095 30.578186S705.650444 411.693492 711.840361 435.772265c16.465177 63.756137 29.092606 89.134793 76.074069 123.488828 19.003043 13.865412 58.742305 23.212186 99.038659 23.212186 51.871498 0 99.038659-14.113009 125.717198-37.69659 23.769278-20.921917 39.429766-46.362472 59.423195-127.140878 6.189916-24.759665 3.528252-44.567396-7.551697-58.742304-16.774673-21.41711-53.418977-32.249463-108.880626-32.249464a803.760616 803.760616 0 0 0-137.787534 11.141849z" fill="#706661" p-id="5498"></path><path d="M826.415709 709.985552l-2.475966 4.828135-3.033059 5.818521c-0.557092 1.114185-1.237983 2.352168-1.856975 3.652051l-2.785462 4.766235-6.189917 10.956152-8.10879 11.698941a267.156782 267.156782 0 0 1-21.788505 26.121447c-4.085345 4.704336-9.099177 8.85158-13.865412 13.494017s-10.33716 8.85158-15.908085 13.30832-11.513244 8.603983-18.012656 12.379832l-9.59437 6.189916-10.151462 5.385227c-6.747009 3.775849-14.174908 6.189916-21.41711 9.656269l-11.327547 4.023446-5.694723 1.980773-5.88042 1.609378a245.739672 245.739672 0 0 1-48.219447 8.480186l-12.379833 0.557092H595.408037c-7.118404 0-16.031883-0.990387-24.32637-1.795076a261.40016 261.40016 0 0 1-46.424372-10.646656 273.718093 273.718093 0 0 1-40.915346-17.888857 245.430177 245.430177 0 0 1-33.301749-22.345598 250.134513 250.134513 0 0 1-42.586623-42.772321c-4.580538-5.756622-7.861194-10.522858-10.089563-13.741613l-3.404454-5.013833a24.759665 24.759665 0 1 1 40.543951-28.845009 19.374438 19.374438 0 0 1 1.299882 2.104572l0.680891 1.176084 2.352168 4.209143a127.264677 127.264677 0 0 0 6.932706 11.76084 200.11999 200.11999 0 0 0 12.379833 17.146068 173.812846 173.812846 0 0 0 19.312538 19.93153 200.367587 200.367587 0 0 0 26.492841 19.683934 203.462545 203.462545 0 0 0 33.116052 16.279479 217.82315 217.82315 0 0 0 38.37748 9.780068c6.499412 0.618992 12.379832 1.609378 20.426724 1.671277H603.33113h-0.495193 3.713949l10.33716-0.309496a190.339923 190.339923 0 0 0 40.296355-7.304101l4.890034-1.361781 4.766235-1.671278 9.408673-3.466353c6.189916-2.909261 12.070337-5.19953 17.641261-8.542084a181.983536 181.983536 0 0 0 30.949581-20.612421c4.39484-3.899647 8.727782-7.613597 12.689328-11.513244s7.675496-7.675496 10.770454-11.760841a169.356107 169.356107 0 0 0 16.279479-22.593194c2.042672-3.528252 4.023446-6.870807 5.756623-9.965765l4.023445-8.294487 1.733177-3.528253c0.557092-1.361782 1.052286-2.599765 1.485579-3.837748 0.928487-2.352168 1.733177-4.39484 2.352169-6.189916l1.980773-5.075731a24.450169 24.450169 0 0 1 45.619682 17.579362 17.765059 17.765059 0 0 1-1.114185 2.847361z" fill="#943436" p-id="5499"></path></svg>