<?xml version="1.0" standalone="no"?><!DOCTYPE svg PUBLIC "-//W3C//DTD SVG 1.1//EN" "http://www.w3.org/Graphics/SVG/1.1/DTD/svg11.dtd"><svg t="1625644970778" class="icon" viewBox="0 0 1024 1024" version="1.1" xmlns="http://www.w3.org/2000/svg" p-id="3857" xmlns:xlink="http://www.w3.org/1999/xlink" width="200" height="200"><defs><style type="text/css"></style></defs><path d="M422.4 750.933333 422.4 750.933333 422.4 750.933333zM512 0C230.4 0 0 230.4 0 512s230.4 512 512 512 512-230.4 512-512S793.6 0 512 0zM512 960C264.533333 960 64 759.466667 64 512S264.533333 64 512 64 960 264.533333 960 512 759.466667 960 512 960zM693.0176 282.702507l51.28832 51.28832-410.30656 410.30656-51.28832-51.28832 410.30656-410.30656ZM282.702507 330.9824l51.28832-51.28832 410.30656 410.30656-51.28832 51.28832-410.30656-410.30656Z" p-id="3858"></path></svg>