<?xml version="1.0" standalone="no"?><!DOCTYPE svg PUBLIC "-//W3C//DTD SVG 1.1//EN" "http://www.w3.org/Graphics/SVG/1.1/DTD/svg11.dtd"><svg t="1625205221031" class="icon" viewBox="0 0 1031 1024" version="1.1" xmlns="http://www.w3.org/2000/svg" p-id="4335" xmlns:xlink="http://www.w3.org/1999/xlink" width="201.3671875" height="200"><defs><style type="text/css"></style></defs><path d="M823.3379 817.235682c121.143408-120.238697 173.604121-280.045964 153.888945-424.045908h0.100524S960.200674 262.622285 982.818466 202.773094c31.790564-52.850241 14.927743-100.209385-19.765437-134.638691s-82.404156-51.141341-135.618796-19.589521C767.120121 70.986758 635.559962 54.035979 635.559962 54.035979c-145.093137-19.526694-306.056426 32.506794-427.224964 152.770621S34.756007 486.839999 54.433487 630.789682h-0.062827s17.114129 130.680577-5.491098 190.492072c-31.790564 52.774849-14.927743 100.171689 19.765438 134.61356s82.36646 51.179038 135.618795 19.627218c60.314113-22.441876 191.874271-5.440836 191.874271-5.440836v-0.100523c145.093137 19.56439 306.094122-32.506794 427.224965-152.745491" fill="#FAD841" p-id="4336"></path><path d="M977.314803 393.202339s-6.948688-53.302597-6.094238-107.421947c-6.508898-6.873296-11.635598-22.002086-14.952874-47.258621H956.229995c23.246064 169.99784-38.651294 358.592531-181.671134 500.582005-134.764346 133.75911-346.806148 201.901492-514.127549 190.027151-9.625127 9.336122-25.608367 24.716221-45.436631 43.049198C278.776855 954.978037 396.125501 970.056565 396.125501 970.056565v-0.100523c145.093137 19.56439 306.056426-32.469097 427.224964-152.74549s173.57899-279.995703 153.87638-424.008213z" fill="#FAAC28" p-id="4337"></path><path d="M86.274312 629.005389c2.739266 22.027217 16.134025 140.73293-7.539264 203.421911a32.670144 32.670144 0 0 1-2.513088 5.101568c-20.28062 33.713076-15.241879 66.018823 14.952874 95.999963s62.688981 34.944489 96.753889 14.839785a30.596847 30.596847 0 0 1 5.139265-2.513088c65.880603-24.464912 192.892072-9.021986 207.178977-7.212563 141.109893 18.923553 290.751719-34.818835 400.548535-143.824028s163.966428-257.591523 144.86696-397.369479a22.152871 22.152871 0 0 1-0.251309-2.513088c-2.776962-22.090044-16.134025-140.657537 7.539264-203.321387a32.670144 32.670144 0 0 1 2.513088-5.101569C975.731558 152.800339 970.692817 120.507157 940.498064 90.475755s-62.751808-34.96962-96.753889-14.776957a33.26072 33.26072 0 0 1-5.139265 2.513088c-62.952855 23.447111-181.884746 10.353923-204.653324 7.539264-0.929843-0.062827-1.784293-0.125654-2.714135-0.251309-140.73293-19.086904-290.525542 34.756007-400.347488 143.761201S66.923534 486.739476 86.023003 626.592825c0.125654 0.791623 0.188482 1.608376 0.251309 2.399999m61.218824 394.994611c-35.874332 0-70.856517-15.380099-101.403102-45.738203C-4.347642 928.188519-13.821984 866.228334 19.853395 807.824168c15.141355-44.154957 7.300521-139.388428 2.864921-172.900457-0.100524-0.691099-0.163351-1.357068-0.188482-2.060732C1.646073 474.199167 62.550761 306.714415 185.805163 184.440117s291.76952-182.83972 451.564223-162.094178a18.84816 18.84816 0 0 1 2.299475 0.226178C673.507592 26.919759 769.482424 34.710332 813.863558 19.732327c58.869087-33.486898 121.269063-24.050252 171.719305 26.010462s59.949715 112.04603 26.249205 170.46276C996.678147 260.373072 1004.518981 355.606542 1009.004844 389.131137c0.062827 0.665968 0.125654 1.394764 0.188481 2.085863 20.883762 158.626116-40.020927 326.098303-163.262764 448.385166C722.12328 962.517301 552.514969 1022.957068 392.041732 1001.394773l-0.452355-0.062827c-61.218824-7.313086-137.918271-9.047117-173.792603 2.978009-23.208368 13.168581-46.944484 19.690045-70.366465 19.690045" fill="#454849" p-id="4338"></path><path d="M485.340126 756.444083a34.39161 34.39161 0 0 1-48.213594 3.958114 33.775903 33.775903 0 0 1-3.983245-47.849196 34.39161 34.39161 0 0 1 48.213594-3.857591 33.775903 33.775903 0 0 1 3.983245 47.748673M573.825955 698.366619a34.39161 34.39161 0 0 1-48.213594 3.958113 33.775903 33.775903 0 0 1-3.983244-47.849196 34.39161 34.39161 0 0 1 48.213594-3.958113 33.775903 33.775903 0 0 1 3.983244 47.849196M548.029106 817.411599a34.353913 34.353913 0 0 1-47.748672 7.690049 33.775903 33.775903 0 0 1-7.71518-47.371709 34.366479 34.366479 0 0 1 47.748672-7.69005 33.763338 33.763338 0 0 1 7.752877 47.384275M640.988233 775.292243a43.086894 43.086894 0 0 1-60.464898-4.259684 42.320402 42.320402 0 0 1 4.247118-60.012542 43.086894 43.086894 0 0 1 60.464898 4.209422 42.320402 42.320402 0 0 1-4.247118 60.062804M740.55678 721.738337a33.147631 33.147631 0 0 1-46.429301 3.769632 32.54449 32.54449 0 0 1-3.85759-46.115165 33.147631 33.147631 0 0 1 46.429301-3.769632 32.54449 32.54449 0 0 1 3.85759 46.115165M804.615394 654.362447a32.067003 32.067003 0 0 1-44.959145 3.706805 31.526689 31.526689 0 0 1-3.769632-44.657574 32.092134 32.092134 0 0 1 44.959145-3.669109 31.488993 31.488993 0 0 1 3.769632 44.632444M359.811379 883.631468a32.067003 32.067003 0 0 1-44.959145 3.706805 31.488993 31.488993 0 0 1-3.769632-44.632443 32.067003 32.067003 0 0 1 44.959144-3.706805 31.488993 31.488993 0 0 1 3.769633 44.632443M449.377836 851.941428a32.067003 32.067003 0 0 1-44.959145 3.769632 31.488993 31.488993 0 0 1-3.769632-44.632443 32.067003 32.067003 0 0 1 44.959145-3.706805 31.488993 31.488993 0 0 1 3.769632 44.632443M673.721204 656.083913a36.025117 36.025117 0 0 1-50.5382 4.146595 35.40941 35.40941 0 0 1-4.171726-50.136106 36.062813 36.062813 0 0 1 50.5382-4.171726 35.421976 35.421976 0 0 1 4.171726 50.161237" fill="#FCB72C" p-id="4339"></path><path d="M161.654387 449.847344a23.811509 23.811509 0 0 1-21.687949-33.738207 569.842711 569.842711 0 0 1 115.237651-162.747581 576.414436 576.414436 0 0 1 129.499426-96.980067 24.037687 24.037687 0 0 1 32.469098 9.28586 23.673289 23.673289 0 0 1-9.411515 32.280616A529.00503 529.00503 0 0 0 289.005123 286.923847a520.950583 520.950583 0 0 0-105.65022 149.16434A23.937163 23.937163 0 0 1 161.654387 449.847344M490.416563 122.404539a30.848156 30.848156 0 0 1 3.631413 43.740297 31.4136 31.4136 0 0 1-44.066999 3.643978 30.885852 30.885852 0 0 1-3.631412-43.777994 31.4136 31.4136 0 0 1 44.066998-3.606281" fill="#FEFEFE" p-id="4340"></path></svg>