<?xml version="1.0" standalone="no"?><!DOCTYPE svg PUBLIC "-//W3C//DTD SVG 1.1//EN" "http://www.w3.org/Graphics/SVG/1.1/DTD/svg11.dtd"><svg t="1625205337560" class="icon" viewBox="0 0 1024 1024" version="1.1" xmlns="http://www.w3.org/2000/svg" p-id="6749" xmlns:xlink="http://www.w3.org/1999/xlink" width="200" height="200"><defs><style type="text/css"></style></defs><path d="M640 128h128v128h-128zM768 768h128v128h-128zM512 768h128v128h-128zM128 640h128v128H128zM256 768h128v128H256zM128 128h128v128H128z" p-id="6750"></path><path d="M384 384h128v128H384z" p-id="6751"></path><path d="M640 384h128v128h-128z" p-id="6752"></path><path d="M640 640h128v128h-128z" p-id="6753"></path><path d="M384 640h128v128H384z" p-id="6754"></path><path d="M512 512h128v128h-128z" p-id="6755"></path><path d="M512 256h128v128h-128z" p-id="6756"></path><path d="M768 512h128v128h-128zM768 256h128v128h-128z" p-id="6757"></path><path d="M256 512h128v128H256z" p-id="6758"></path><path d="M128 384h128v128H128z" p-id="6759"></path><path d="M256 256h128v128H256z" p-id="6760"></path><path d="M384 128h128v128H384z" p-id="6761"></path><path d="M85.333333 85.333333h853.333334v853.333334H85.333333V85.333333z m42.666667 42.666667v768h768V128H128z" p-id="6762"></path></svg>